/* XPM */
static char *pngwing_com__2__removebg_preview__1_1647596173[] = {
/* columns rows colors chars-per-pixel */
"50 50 238 2 ",
"   c #76381F",
".  c #753C29",
"X  c #6C392B",
"o  c #5C4535",
"O  c #7B432A",
"+  c #6B483B",
"@  c #774733",
"#  c #7A513B",
"$  c #7A584B",
"%  c #775D54",
"&  c #6C524E",
"*  c #7E7B5A",
"=  c #675D68",
"-  c #5A657B",
";  c #7A7665",
":  c #616877",
">  c #6E7374",
",  c #7A6D70",
"<  c #833B1E",
"1  c #853C23",
"2  c #883E25",
"3  c #983B36",
"4  c #A95F1E",
"5  c #BD611E",
"6  c #844225",
"7  c #8A4329",
"8  c #954425",
"9  c #974A28",
"0  c #834A3C",
"q  c #88553E",
"w  c #965435",
"e  c #A54825",
"r  c #A55228",
"t  c #A14639",
"y  c #B35A2C",
"u  c #B3652C",
"i  c #BC752A",
"p  c #AA6639",
"a  c #B8753A",
"s  c #BD6C35",
"d  c #C67833",
"f  c #C66C33",
"g  c #9C4C46",
"h  c #865749",
"j  c #99574A",
"k  c #865250",
"l  c #A5584A",
"z  c #896858",
"x  c #956A57",
"c  c #957658",
"v  c #8B6549",
"b  c #A56940",
"n  c #B17255",
"m  c #886966",
"M  c #88756B",
"N  c #997C64",
"B  c #947D77",
"V  c #A86E6C",
"C  c #AA7B79",
"Z  c #A17761",
"A  c #CA7746",
"S  c #C67672",
"D  c #BF9232",
"F  c #BF862F",
"G  c #C68929",
"H  c #C98537",
"J  c #CA9539",
"K  c #D49738",
"L  c #D09234",
"P  c #E2993B",
"I  c #D7A13A",
"U  c #9B835E",
"Y  c #8A825D",
"T  c #B48F52",
"R  c #99866B",
"E  c #988679",
"W  c #898174",
"Q  c #A5846C",
"!  c #A68668",
"~  c #A88977",
"^  c #B58979",
"/  c #A5947B",
"(  c #B6977B",
")  c #B49163",
"_  c #BAA673",
"`  c #B6A162",
"'  c #C78845",
"]  c #C89548",
"[  c #D89A47",
"{  c #CB8E50",
"}  c #E5924D",
"|  c #D8A74C",
" . c #C8A559",
".. c #D6AC56",
"X. c #DA8E7C",
"o. c #C59B70",
"O. c #CAA47E",
"+. c #C7AB63",
"@. c #5C7487",
"#. c #657A8B",
"$. c #677D97",
"%. c #8B7E86",
"&. c #76828F",
"*. c #688296",
"=. c #758A99",
"-. c #6E818F",
";. c #758EA2",
":. c #7B95A6",
">. c #7090AB",
",. c #8D8A85",
"<. c #968A87",
"1. c #9A978A",
"2. c #959494",
"3. c #9D9693",
"4. c #9C9B95",
"5. c #969C9C",
"6. c #9D9E9D",
"7. c #969B96",
"8. c #A78988",
"9. c #AE9B8A",
"0. c #A59587",
"q. c #B49888",
"w. c #A29C95",
"e. c #AE9D92",
"r. c #A29D9C",
"t. c #AB9D9C",
"y. c #A69696",
"u. c #B39A92",
"i. c #B48A89",
"p. c #96A19B",
"a. c #9BA19C",
"s. c #9CA195",
"d. c #AAA58A",
"f. c #BAA48A",
"g. c #A5A294",
"h. c #A2A19D",
"j. c #AAA19B",
"k. c #ACA59A",
"l. c #B3A49B",
"z. c #B4AA99",
"x. c #BBB29B",
"c. c #959DA2",
"v. c #9D9EA1",
"b. c #999EAA",
"n. c #889BAA",
"m. c #A29CA2",
"M. c #A69AA5",
"N. c #B79EA2",
"B. c #9CA1A2",
"V. c #95A3AC",
"C. c #9BA3AA",
"Z. c #97A4A7",
"A. c #99A9B6",
"S. c #80A0B7",
"D. c #A2A2A2",
"F. c #ABA3A3",
"G. c #AAA9AC",
"H. c #A6A8A8",
"J. c #B2ABA4",
"K. c #B7A8A2",
"L. c #AEB2AF",
"P. c #BAB4A8",
"I. c #A6AEB6",
"U. c #AAB3B7",
"Y. c #BBBCBC",
"T. c #B5B8B8",
"R. c #B1AFB2",
"E. c #CC9186",
"W. c #D1B48D",
"Q. c #CAB699",
"!. c #D8BC9B",
"~. c #CCA78A",
"^. c #C8BAA8",
"/. c #C6BEB7",
"(. c #D1B6AB",
"). c #E4ABA0",
"_. c #D6C399",
"`. c #D6C6A9",
"'. c #CBC6B8",
"]. c #D6C8B8",
"[. c #DCD5B8",
"{. c #D4C9AD",
"}. c #EBD6BA",
"|. c #F4DAB7",
" X c #ECD3A8",
".X c #E9E5BC",
"XX c #F5E1B4",
"oX c #F4E3BB",
"OX c #FBE6BA",
"+X c #96B5CB",
"@X c #8BAED2",
"#X c #8BB0D3",
"$X c #93B2CC",
"%X c #A2B1C2",
"&X c #A8BBC7",
"*X c #B3BCC5",
"=X c #BABEC1",
"-X c #B4BBC8",
";X c #9EC1D4",
":X c #ADC1CB",
">X c #BDC1C3",
",X c #BAC6CC",
"<X c #AEC4D5",
"1X c #C5C7C8",
"2X c #D9CFC3",
"3X c #DBD4C9",
"4X c #D6D6DC",
"5X c #EBDCC3",
"6X c #E4DAC7",
"7X c #F7DFC4",
"8X c #E4DCD5",
"9X c #EBE3C8",
"0X c #F4E3C4",
"qX c #FBE4C2",
"wX c #F5E9C5",
"eX c #FDEBC4",
"rX c #F5EBCB",
"tX c #FBECCC",
"yX c #F7E4C9",
"uX c #FBF4CE",
"iX c #EBE6D6",
"pX c #FDEED3",
"aX c #F4E9D6",
"sX c #FDF3D4",
"dX c #FEF4DC",
"fX c #FFF9DC",
"gX c #F7F4D6",
"hX c #DDDDEB",
"jX c #E2DCE0",
"kX c #DCE0E3",
"lX c #E4E7E8",
"zX c #FEF4E3",
"xX c #FEFBE3",
"cX c #FFF6EC",
"vX c #FEFBEB",
"bX c #F6F5E5",
"nX c #FDF9F1",
"mX c #F3EDE1",
/* pixels */
"6.a.a.v.6.v.6.6.h.6.6.6.6.r.a.s.a.p.4.6.m.v.5.p.w.g.3.w.y.y.m.D.5.B.F.6.m.5.B.p.h.r.r.6.m.v.v.b.r.6.",
"6.v.6.6.a.6.6.6.6.r.6.6.6.6.6.a.6.6.h.r.m.v.p.6.g.w.y.<.8.i.y.<.F.5.6.m.2.H.5.D.s.6.6.6.6.v.v.m.v.6.",
"p.6.v.B.v.r.6.a.6.6.6.h.s.v.a.6.v.m.m.6.v.b.H.v.4.j.y.B ^ ).).E.C y.t.5.a.p.6.5.6.p.p.a.a.6.m.m.r.6.",
"v.a.a.6.6.6.6.6.v.6.6.v.6.a.v.m.M.m.m.b.b.v.c.5.m.r.1.<.^ E.X.X.S V u.t.p.p.D.B.v.6.Z.a.v.r.r.r.6.v.",
"v.a.6.6.6.h.6.6.r.v.6.6.6.v.a.6.m.m.m.B.v.v.v.D.6.w.K.i.^ ^ n l 3 g %.E.7.B.6.M.m.v.v.v.6.6.v.6.6.m.",
"a.6.v.h.v.6.6.v.6.v.6.6.a.a.6.6.r.r.a.5.a.a.m.r.4.1X^.z.9.q.^ l 3 S X.i.y.r.y.M.M.M.m.6.6.a.s.s.6.a.",
"r.6.v.6.r.6.v.v.m.a.v.6.v.v.6.6.6.h.p.s.h.s.7.t.3X6Xd.{.d.w.j.q.V l V E.8.N.t.M.M.M.v.v.p.p.p.4.6.6.",
"6.6.6.6.v.6.B.r.v.a.m.v.v.v.6.6.w.s.7.p.s.1.J.8XcXx.q.9Xg.6.5.M.u.C g %.m i.M.m.m.v.v.6.Z.5.h.6.v.6.",
"r.r.a.6.6.6.m.v.m.6.v.m.6.6.m.6.5.D.a.p.4.P.mXcXaX0.( sXP.5.v.m.r.k.B %.C %.m.6.6.a.6.B.a.6.6.6.r.r.",
"6.6.r.6.6.B.v.a.6.B.v.6.6.r.6.D.r.r.4.w.'.mXcXvX[./ ( dX].7.m.c.p.a.w.y.M.y.D.a.a.p.6.r.m.6.m.r.a.v.",
"6.6.v.a.6.r.m.6.v.6.6.6.D.h.6.6.D.2.j.3XcXcXcXcXP./ q.fXiXw.m.m.v.5.H.5.m.6.v.p.p.p.6.w.t.m.b.v.v.6.",
"6.6.6.m.6.v.a.v.D.6.D.6.7.4.r.r.7.F.8XzXzXxXzXdXk.0.f.fXdXz.4.m.m.c.c.v.5.D.6.a.a.s.r.y.r.r.v.v.m.B.",
"6.6.v.6.a.6.v.v.5.m.m.6.w.r.6.4.z.iXxXfXxXdXvX8Xd./ x.fXzX'.7.a.c.m.6.m.v.F.r.r.p.a.a.r.r.m.v.v.6.6.",
"r.s.a.6.6.B.6.v.6.h.5.r.F.4.4.P.aXbXfXgXdXxXcX2X9.E ^.fXfX3X7.v.6.v.6.M.M.m.m.5.a.s.6.6.m.r.r.v.6.6.",
"a.6.a.v.6.B.6.v.a.v.r.s.4.w./.aXzXdXuXgXgXbXnX^.q.R `.uXsXaXh.v.B.a.r.m.m.r.B.6.6.6.r.r.v.6.B.v.a.B.",
"6.6.6.a.a.r.6.a.6.6.h.w.w.'.zXzXdXpXsXuXbXvXbX^.q.Q `.uXuXdXJ.v.6.6.v.r.m.v.6.v.a.r.r.r.6.a.6.6.v.r.",
"w.7.B.B.6.h.6.6.6.6.h.3.].dXaXgXpXdXpXgXbXvXbXx./ Q }.uXsXfX'.5.a.v.v.m.r.a.a.6.v.m.6.6.r.s.6.a.v.r.",
"r.6.v.B.6.4.6.a.a.h.3.'.tXtXuXuXyXyXtXpXxXvXiXd.( ~ qXrXgXxX].w.m.r.6.v.6.v.v.6.r.a.6.6.6.6.6.6.6.6.",
"6.6.B.B.4.4.h.6.6.w.^.9XtXuXeXwXyXrXpXdXcXvXiXd.~ ( yXwXgXxX3Xr.6.v.m.v.6.a.6.r.6.v.m.6.6.6.6.6.a.m.",
"v.a.m.a.6.s.h.4.w.w.5XsXeXOXoXXXtXtXpXzXcXcX3X9.) ( tXwXgXvXiXk.r.6.B.v.6.m.6.v.a.6.6.6.r.a.6.6.6.6.",
"Z.c.m.h.r.h.6.4.1.^.qXOXoXXXOXXXeXtXpXzXcXcX2X9.! O.eXwXgXvXaXJ.w.6.B.6.6.r.m.6.m.6.6.r.6.6.v.r.6.6.",
"c.c.6.6.r.r.6.3.M }.yX|.oXXXXXOXeXtXdXcXnXnX/.9.! W.eXwXdXcXgXP.4.6.h.6.6.v.a.6.6.6.B.6.6.v.a.r.6.v.",
"Z.v.s.r.4.h.v.y.x Q.}.5XwX.X XOXtXuXfXxXnXcX/.9.c _.eX0XdXvXdX{.4.r.D.6.6.6.m.a.6.6.6.r.6.a.6.v.v.h.",
"6.a.v.s.6.r.B.w.z ! q.l.{.[.rXoXrXrXsXfXzXdX(.9.Z  XeX5XdXvXsX'.4.6.v.6.6.v.a.6.r.B.6.v.6.m.6.6.6.6.",
"6.6.a.6.r.6.b.t.x ! e.y.w.w.f.{.6XrXrXgXfXgX(./ !  XOXqXzXcXsX[.4.6.6.6.m.6.m.6.B.6.6.6.v.6.6.m.6.6.",
"6.s.6.a.6.6.b.j.x Z l.5.r.4.w.1.k.{.9X.XuXrXQ.E Q |.OXyXfXzXfX6Xs.6.6.6.r.5.6.6.6.r.v.6.6.6.6.a.v.6.",
"w.s.6.6.6.6.b.F.V x 3.D.5.5.r.j.s.1.x..X.XoXQ.~ ^ qXOXtXdXfXfX9Xj.6.6.6.B.6.6.v.r.6.r.B.a.m.v.6.r.r.",
"w.h.6.6.r.6.v.r.N $ %.G.b.T.G.2.7.h.1._ [.wXQ.R ( wX7XpXdXdXfX9Xk.6.6.6.6.6.r.6.6.v.6.6.6.6.r.6.a.v.",
"a.6.6.h.h.6.c.4.E $ B r.m.1XhX4XR.2.g.1.d.[.Q.c ~.qX7XsXsXsXdXrXJ.6.r.6.r.6.a.m.6.m.a.6.r.v.v.v.6.6.",
"b.v.w.w.h.v.v.4.0.% M l.m.=X4XlXhX1X2.4.1.'.!.c W.OXyXsXsXuXdXaXJ.5.h.6.6.v.6.6.6.6.v.6.B.v.m.a.6.v.",
"b.B.y.w.r.v.v.3.J.m z q.j.1XhXhXhXhX4X5.,.z.f.c _.oXtXsXrXuXdXaXP.5.h.6.6.6.6.6.v.6.r.a.v.6.v.B.v.r.",
"b.b.w.w.r.6.5.m.l.% @ # h E ].8X8X4X4XlXG.,./ c `.oXeXtXwXrXdXrXP.7.s.6.6.B.a.6.m.6.6.m.v.r.6.r.v.a.",
"b.v.r.w.m.6.a./.m . .   2 6 b O.^.3X8X4XlXT.* R }.OXeXeXeXuXsX9Xz.s.s.s.7.5.B.v.v.m.r.m.r.m.s.6.6.6.",
"v.D.h.4.r.6.5.1.@ 1 1 < 2 e y { n ( ^.2X8XmXY.E }.tX|.|.OXOXOXtXz.p.s.a.6.B.6.6.m.v.r.r.6.s.s.6.a.m.",
"b.b.p.6.6.v.6.E k 2 1 < 7 9 w A s s { ~.].8XmX1Xd.x.}.|. XOXOX9XF.v.r.r.w.r.6.r.6.b.v.b.v.6.6.s.6.6.",
"m.b.s.a.c.v.F.8.g 1 1 < 2 7 r A f 5 d ' o.Q.iXiX'.,.0.`. XXXoX5XM.M.m.m.r.r.4.6.6.v.v.v.b.v.6.v.6.6.",
"j.6.s.s.v.c.c.N.x 7 7 < 1 9 r A A d d L K  ._ 9XnX4Xs.E k.[.0X}.j.v.v.6.5.m.6.h.6.r.r.m.m.m.m.v.v.6.",
"w.w.w.6.B.Z.5.t.~ q 6 1 1 9 e f s 4 i G L |  ._ '.bXlXY.,.& N Q.E y.j.F.r.r.6.6.6.6.6.6.r.m.m.m.m.a.",
"c.6.6.r.B.m.v.t.u.x . 1 < 2 e f } f i i H J | ..+.O..XbX3XW o + @ q c Q 0.t.w.a.a.6.6.a.6.6.6.6.v.r.",
"Z.B.5.r.v.c.m.y.u.^ 2 2 < 3 e y f d H ' F H L K ..+._ x.iXxX6Xf.c v v z B y.r.r.v.a.B.s.p.6.6.6.6.6.",
"p.p.r.t.D.6.6.r.4.z.m . O 2 9 r d H i H } [ K F J ....T ) W.7XcXzXaX3X^.1.4.a.p.v.v.v.v.6.m.a.6.6.6.",
"B.a.w.4.4.6.5.b.B.4.u.$ X 6 8 r u H H H H K | I J G L | { T ) q.(.2X8XK.,.j.5.B.B.B.v.v.5.6.4.6.6.6.",
"5.s.w.r.B.Z.C.b.c.c.M.8.+ . 2 e y d H } P G G L I I L i H ' A p g g h & <.r.p.c.c.v.c.r.h.p.p.s.a.m.",
"B.h.6.5.H.U.T.&X%X%XA.6.M + # 0 w p p a ] | | K D D K ' ' a u u t g . m F.B.c.A.C.v.m.r.g.h.s.a.6.a.",
"r.r.6.h.T.1X1X,X<X+X+X;.*.@.@.- = , ; W R U U ` +. .T D a a p w q k z y.b.A.V.V.Z.m.y.w.w.r.5.6.6.r.",
"D.h.6.6.H.L.T.>X,X-X&X+XS.>.>.$.-.@.: : > > ; * * Y U ! U c v $ % = %.$.&.=.A.A.T.R.F.t.w.6.6.v.v.v.",
"6.B.6.6.4.4.h.D.U.I.=X-X1X-X-X&XA.c.n.:.:.:.*.*.*.*.*.- #.-.&.*.=.;.;.:.S.A.A.&X*X=X>XY.Y.T.H.Z.a.6.",
"6.v.r.v.h.h.4.r.4.r.4.m.G.>X,X,XA.Z.Z.A.+X+X#X#X@X#X#X;X@X@X$X$X$X$X;X<X<X:X-X-X=X>X>X=X=X=X=XT.v.v.",
"6.6.6.6.6.r.6.6.6.r.H.Y.1X>X>XU.5.Z.C.A.U.%X%X%X%X%X%XI.%XA.C.I.&X:X,X&XZ.C.v.v.v.B.h.D.D.v.v.v.6.6.",
"6.v.v.r.v.6.6.6.6.6.5.F.G.U.T.R.5.5.6.Z.C.V.b.V.C.c.c.c.v.v.5.b.=XY.Y.L.p.s.6.D.6.6.6.6.6.6.6.6.6.6."
};
