/* XPM */
static char *__removebg_preview__1_1647595588[] = {
/* columns rows colors chars-per-pixel */
"50 50 256 2 ",
"   c #4C0301",
".  c #490600",
"X  c #530203",
"o  c #5C0202",
"O  c #5C0B01",
"+  c #5C030B",
"@  c #550A04",
"#  c #5A1501",
"$  c #5C0110",
"%  c #630302",
"&  c #6B0302",
"*  c #640C00",
"=  c #6C0C01",
"-  c #66090A",
";  c #730201",
":  c #7C0302",
">  c #730C01",
",  c #7C0A01",
"<  c #7C030B",
"1  c #76060D",
"2  c #631400",
"3  c #691902",
"4  c #7B1B00",
"5  c #771604",
"6  c #7D0F12",
"7  c #682604",
"8  c #772804",
"9  c #683402",
"0  c #783704",
"q  c #7A3817",
"w  c #732D18",
"e  c #672C12",
"r  c #7A4604",
"t  c #7A4717",
"y  c #754B0E",
"u  c #7E4F26",
"i  c #7C603B",
"p  c #840305",
"a  c #8C0405",
"s  c #84020B",
"d  c #8C010C",
"f  c #83090A",
"g  c #880A03",
"h  c #9C0A02",
"j  c #96030A",
"k  c #851800",
"l  c #981802",
"z  c #860211",
"x  c #911011",
"c  c #A60407",
"v  c #B50609",
"b  c #A81605",
"n  c #A60511",
"m  c #B70A13",
"M  c #B41310",
"N  c #882608",
"B  c #942A09",
"V  c #863703",
"C  c #953808",
"Z  c #89381A",
"A  c #902E16",
"S  c #A82705",
"D  c #B62805",
"F  c #AA3B06",
"G  c #B43D12",
"H  c #AF300C",
"J  c #8D3425",
"K  c #AF3625",
"L  c #CA1711",
"P  c #CB150F",
"I  c #E71B17",
"U  c #F1191C",
"Y  c #CA2B0C",
"T  c #DA2615",
"R  c #CC3316",
"E  c #E92118",
"W  c #E5371E",
"Q  c #D43629",
"!  c #CD312E",
"~  c #ED1B24",
"^  c #864405",
"/  c #974909",
"(  c #8A5407",
")  c #995B08",
"_  c #854516",
"`  c #964919",
"'  c #975915",
"]  c #885716",
"[  c #B5450A",
"{  c #A45A09",
"}  c #A7471A",
"|  c #A55917",
" . c #AE4D0C",
".. c #916519",
"X. c #A5650B",
"o. c #AA6817",
"O. c #B36D1A",
"+. c #B86917",
"@. c #AB7319",
"#. c #B67819",
"$. c #AF740C",
"%. c #884825",
"&. c #974825",
"*. c #885929",
"=. c #9C5B28",
"-. c #985839",
";. c #915438",
":. c #A74623",
">. c #A75825",
",. c #B65924",
"<. c #B45533",
"1. c #96693B",
"2. c #9C723A",
"3. c #956C2C",
"4. c #A86826",
"5. c #B56B27",
"6. c #AB7A28",
"7. c #B47224",
"8. c #B97929",
"9. c #AB6938",
"0. c #B36737",
"q. c #A97836",
"w. c #B97935",
"e. c #C54815",
"r. c #CF5316",
"t. c #C46C17",
"y. c #D24E31",
"u. c #EE502F",
"i. c #C67929",
"p. c #C67934",
"a. c #D37329",
"s. c #E86B38",
"d. c #9A5C42",
"f. c #9C6C47",
"g. c #9B7348",
"h. c #9A7858",
"j. c #916E4C",
"k. c #A66948",
"l. c #A47748",
"z. c #B57746",
"x. c #A57758",
"c. c #B46C4B",
"v. c #A45C43",
"b. c #C97747",
"n. c #CD7774",
"m. c #BA8319",
"M. c #B8810C",
"N. c #B88427",
"B. c #B88737",
"V. c #AB8437",
"C. c #C5831B",
"Z. c #D08F1A",
"A. c #C88629",
"S. c #C99528",
"D. c #C78936",
"F. c #C99537",
"G. c #D59537",
"H. c #D58F2D",
"J. c #EB9333",
"K. c #DAA636",
"L. c #D7A62F",
"P. c #E3AA38",
"I. c #EFB63A",
"U. c #E1891F",
"Y. c #F4C43D",
"T. c #B88548",
"R. c #A88B59",
"E. c #BE9A55",
"W. c #B58950",
"Q. c #A68667",
"!. c #B89768",
"~. c #AA997B",
"^. c #B59475",
"/. c #B18C6A",
"(. c #B3A777",
"). c #B3A14F",
"_. c #C78846",
"`. c #C89844",
"'. c #DC9A42",
"]. c #D69746",
"[. c #C58551",
"{. c #C7975A",
"}. c #D9904A",
"|. c #EC8F4D",
" X c #C9A54A",
".X c #D8A848",
"XX c #D9A654",
"oX c #DEB653",
"OX c #CFB34F",
"+X c #E4A748",
"@X c #E8B447",
"#X c #E6B85A",
"$X c #F1B054",
"%X c #CF916D",
"&X c #C5A065",
"*X c #C5A77B",
"=X c #D3AC6D",
"-X c #E7BA68",
";X c #EDAF6F",
":X c #B9C77A",
">X c #FCC548",
",X c #EFC75A",
"<X c #DBC26F",
"1X c #EAC66A",
"2X c #F2C669",
"3X c #F6D36F",
"4X c #FEE16C",
"5X c #9C9B8D",
"6X c #9D9C95",
"7X c #9D9E9D",
"8X c #979B98",
"9X c #A79C8C",
"0X c #AC9B8B",
"qX c #A99888",
"wX c #B59B87",
"eX c #A39D94",
"rX c #AA9C94",
"tX c #A29D9C",
"yX c #AA9C99",
"uX c #AB9796",
"iX c #B39996",
"pX c #9CA194",
"aX c #96A29B",
"sX c #9CA19C",
"dX c #93A396",
"fX c #9CA18A",
"gX c #A7A387",
"hX c #B8A387",
"jX c #A3A294",
"kX c #AAA195",
"lX c #A2A19B",
"zX c #ABA59B",
"xX c #B3A694",
"cX c #B8B787",
"vX c #9D9EA2",
"bX c #9B9EA6",
"nX c #A29DA2",
"mX c #A39DA8",
"MX c #9BA1A2",
"NX c #99A4A2",
"BX c #A3A1A3",
"VX c #A6A2A6",
"CX c #C69B87",
"ZX c #CE928F",
"AX c #CAB787",
"SX c #D0B38D",
"DX c #F6BA88",
"FX c #B7C685",
"GX c #D6C486",
"HX c #D7CC98",
"JX c #F3CF98",
"KX c #FFE293",
"LX c #FFDDAA",
"PX c #D0E4A8",
"IX c #FFE0AF",
"UX c #DFCDA5",
/* pixels */
"eXtX6XpX7X7XvXMXpXsX7X7XvXmXvX7XtX6XsXNX8X8XvX7XvX7XvXmX7XtXtXtX8X7X8XdXvXBXMX6XtXtXnXmXMXMX6XeXtX7X",
"tX7XsX7XsXvXvXvX7XsXpXsXmXvXvXtXtX7X8XaXbXvXvX7XtXvXMXMXmX7XtX6X7X7XsXBXbX7X7XsXsXlXnXnXvXaXnXBXtXvX",
"7XvXsX7XvXbXnXtX6XsX7XsX7XsXtXtXnXlXMXvXbXbXnXnXsXjX6X8XMX7X6XtXvXtXtX6X7XnXvXMX8X7XtXnX6X8X7X7X7X7X",
"nXvXMXaXvXnXtXtX7X7XvXsX6X6XtXnXvXtXsX7XnXmXmXmX7X6XpXsXMXMX7XsX7XtXuXtXnXmXvXMXbXvXtXtX7X7XvXbXvX7X",
"nXvX7X7X7X7XeXtXnXnXMXMXMXvXvXvXvX7X6XpXlXBXnXtXsXpXsXsX7X6XaX8XsX7X7XnXtX6X8XMXvXbXsX6X7XMXbXNXvX7X",
"7XvX7X7X7XtXtXyXtX7X7XvXvXvXvXMXvXtXtXeXeXrXnXiXkXjXjXkXrXkXzXjX9XuXiXiX0XxXkX6X6X7XpXpX7X7XNXMXvXvX",
"7X7XvXvXvXtXnXtX6X6XpXpXsXvXVXmXuXyXzXrXuXiXZXCXSXAXAXCXHXSXAX=X%Xn.n.n.%XZXSXSXxXeX6XfXjX7X6X7X7X7X",
"aX8XvXvXnXnXtXeXjX9XgXgXgXwXCXZXZXZXZXZXZXZXn.<.;XXXq.q.{.{.E.=Xb.J x K K <.ZXDXHXAXgX5XpXtXyXtXtX7X",
"sX6XBXbXmXnX9XgX(.*X=X=X;X[.y.! ! ! ! Q ! ! ! R <.s.XXB.6.w.XXT.XX:.c v P M K b.DXJXGX(.fX7XnXmXvX7X",
"pXsXtXnXtXuXwXCXW.l.T.oX$XI.r.Y ~ ~ U I I I I T D [ H.@XF.N.XXw.F.;XR v P L D B <.=XKXHXgX6XvXMXvX7X",
"pXpXtXtX0X^./.0.<.,.7.A.Z.Y.J.r.T ~ U I I T W T Y [  .C.P.m.N.`.oXXX|.H [ e.e.G S G %XLXUXxXsXBXnX7X",
"7X7XtX0XwXW.:.B b D F +.Z.Y.Y.U.R T E I T u.u.u.u.s.H.t.S.L.F.#.K.+X;Xb.a.a.a.S S ! } %XIXHXqXpXsXvX",
"nXtXyXwX/.<.l h c m b G +.A.Y.>Xa.u.u.W T u.Y r.|.H.L.I.Z.L.@Xm.@XS.D.$X}.H.t. .H ! l [ ;XKXAXhXjX7X",
"nXnXeXCXz.A h c v v v c H i.L.>XJ.F W u.u.Y S [ a.m.S.L.Z.P.,XS.@Xm.O.G.A.o.H.s.y.S c S p.;XGX(.eX7X",
"bXlX~.%Xv.l c c m c m c D e.C.I.I.t.D R u.y.r.U.a.t.o.8.#.H.@XK.+Xo.N.w.|./ F s.G b h g C }.=X=X9XsX",
"vXeX(.W.J g n n c c n m M S t.J.I.U.D Y W s.$X|.s.[ [ ,.{ | @X'.].7.N.;X|.B l l b h a ; = w.F.&XqXsX",
"nXeX*Xz.Z : d j j j j n M b [ H.I.I.Y P P I Q u.D b l B k C P.G.H.o..X#X;XC A n x s & % % >.w.W.0XnX",
"jXqX*Xz.A f d d d d d j n c B +.I.I.e.b P P P v b c b K A 5 H.P.S.$..X.X;X` K J ; & o X * &.7.T.qX7X",
"~.R.[.w.A ; z d d s a d j j k | P.@Xi.k c v v v c h S y.<.V #.I.K.@.S.@X2Xz.DX;.o o X X * &.5._.~.jX",
"hXR._.5.A 6 d z d d s s a j 5 / H.@XD.4 p c c n j h A &.|.O.N.,X,XS.m.L.#X1XLXd.@ X + + O &.8.T.hXzX",
"qXCXXXp.A g d d d z < z s s > ` C.I.G.8 , f < < < & k >.}.N.F.1X,XL.M.S.,XKXLX;.X X X @ 2 >.5.z.hXzX",
"yXhXT.w.C g p d s s < < s : = C O.@XG.V & ; & - % % = 0.B.o.V.OX.XL.S.K.2XKXJX%.@     # _ >.4.T.hXlX",
"pX~.*.7.,.k : z z z z 1 < ; 3 Z N.].'.C = & % % % % * 0.D.4.6._.F.m.H.@X3X1XXX_ . . . # &.] ( W.0XlX",
"pXgX] O.D.} N 5 , < < < s 5 Z 4.`.`.]./ A 5 - % % o % &.w.7.5.w.@.) N.-X3X X4.7 # w q 7 ^ ' ( q.qXtX",
"BX9X3.B.G.H..X5./ N g : ; N _.-XGXR.T.w.0.%.w o % % % 3 } | p.O.) ) B.1X3XE.0 _ 1.*XE.3.4.6.' u ~.6X",
"vX9XR.{.S.K.G.#.F.p.,.C k V D.<XHXcXV.2._ Z 3 O O 3 w 2 8 { A.X.O.' N.1X1X`.o.T.&X<XE.6.] _ 0 t qXjX",
"MXjX^.q.#.P.$XS.S.#.C.A.i.8.S.OXPXPX).*.0 7 8 8 q h.!.f.4.5.A.+.X.8..X,X3XoX@.4.V.V.V...0 _ 8 *.0XlX",
"8XjX~.2.7.$..XA.K.$.$.m.m.N.K.).:XFXj.u y =.w.[.!.AXHXR.q.7.7.O.X.N.K.,X4XOX) ..) ( ..r 0 V 0 u qXtX",
"dXpXqXQ.' @.+.X.P.L.S.N.F.D.N. X<X)...y y 3.w.4.&X!.(.3.w.w.' 5.{ o.B.2X4X.X( V ^ / ) X.| o.4.j.qXtX",
"pX8XyXqX2.}.A.$.L.S.$.6.F.`.V.B.<XB.y ] y *...| V.3.3.3.6.o./ V V ) 6.oX#XXXF.' o.5.7.7.' ' 1.h.eXnX",
"lX6X7XzX/.E.H.A.K.S.F.+X@.X.w.D.-X XX...9 9 ' ' X.6.( ) 7.o.{ ) { +.D.OXoX1X#Xw.` Z w 7 7 %.h.xXtXtX",
"nXVXsXpX~.g.^ 7 ^ { 7._.].7.o.7.].D.) @.y 7 ^ r ^ 7.7.| D.'.X.) { o.N.`.#X2XXX9.O @   @ %.f.0XeXsX7X",
"nXvX7X6XqXx.%.* O 2 3 0 9.w.A.A.A.X.^ 0 9 2 7 V | | ` / >.p.i.| { i.].XX-X=XT.q .   . e 1.^.qXvX7X7X",
"vXtXpX6XrXqXd.3 % o o O # q p.i.#./ 8 ` %.7 8 8 N 5 > % 4 >._.p.| ,.0.4.=._ w #     . u j.gXrXnXnX7X",
"6XjXsX7XnXiXk.w O - - O X 2 :.5.i.{ V 0.&.= & ; : : p ; ; N B k 5 , > * @ X   X     . d.x.^.9XnXvX7X",
"tXtXsX7XvXuXl.%.X X + + $ X 2 C +.+.>.` 2 & : g j j d d p , > , : s 1 - - + + X     # f.h.~.uXVX7X7X",
"nXbXsXpX7XqXx.d.@ X - + $ $   7 5.7.=.2 o 1 f a j j j a a p : f p f 1 1 % - o + + X q g./.0XjX8XvX7X",
"bXmXMX6X6XkX^.x.w @ X X + $ X O ' / 3 % > < p a a j j a p p < & ; & & % % * 6 w Z %.k.j.qXjXsXsXsX7X",
"bXvXvX7X7XrX0XQ.x.J 2 @ X X   3 w.o.8 ; f p : : < < < ; & & = o 2 3 8 &.>.9.c.z.z.W.g.i qXpXdXaXvX7X",
"vXvX7XlX7X6XyXiX^.h.;.7 . O   # _.4.k g s a ; ; % & & = 5 Z J d.k.c.z.z.l.l.q.f.l.R.Q.~.kX6XNXaXsX7X",
"tXtX6X7X7X7XtXtXtXqXQ.1.q 2 @ O 0.5.4 : : ; 1 = 5 J -.9.9.9.k.k.k.h.Q.!.wXwXwXqX0X0XrXtXtXvX7X6X7XvX",
"eXeXsXsX7XsXsXMXbXnX0X/.f.-._ # o.5.8 > x J :.-.x.x.k.1.1.x./.CXwXhXwXqXiXzXtXtXeXsXtXmXnXnXtXtXtX7X",
"sXtXlXtX7XsXaXaXbXvXtXuXwXx.f.z.8.o.V ` c.9.1.1.h.x.qXhXxXxXyXtXVXzXrXeXtXMXMXsXpXpXpX7XtXtXnXnXtXvX",
"7X7XtX7XtX7XpXaXbXmXmXnXuXwX/.2.9.' 9 t u g.^.wXiXzXkXeXpXpXvXvX7XtXsXsXmXbXbX6XpXpXpXtXtXtXnXnXvX7X",
"vXvXsX7XtXvXsX7XvX8XvXBXnXuX0XwXx.d.i qX0XqXrXuXyXmXvX6XaXNXMXvX7XsXsXMXvXbXmX7X7XjXpX7XtXtXnXnXnXsX",
"7XvXMXMX7X7X7XvXeXBXvX8XmXyXeXrXiX0XtXtX7XmXmXmXmXVXbXvXMXpX7X7X8XaX7XpX7XnXmXmX7X7X7X7XvXvXvXvX7X7X",
"nXtXvXvX7X7X7X7XtX6XvXNX8XsXmX6XtXtXtXeX7X6X8XvXvXvXvX7XnX7XyXtX7X7XMX7XtXtXnXbXvXvXsXaXMX7X7X7XtXvX",
"tX7XvX7X7X7XvX7XtXnXvXsXsX7X8XvXvX7XlX7X6XtXlX7XvXMX7XvXvX6XtXtXtX7X7XtXeXtXtXvXvXbXMXMX8X7X7X7X7X7X",
"7XtXvXtX7X7XsX7XvXtX7X7XsXvX7XMXnX7XnXsX7XtX7X7X7X7XvXvX7XtXtX7XvX7XtX7XtXtX7XvXnX7XsXsXvX7X7X7X7XnX",
"7XvXvX7X7XvX7XnX7X7XvXsX7XtXsXvX7X7X7X7X7X7XsXvXvXtXsXtXsXvX7X7X7X7XsXvXMX7X7XsX7XvXvX7X7X7XsXnX7XsX"
};
