/* XPM */
static char *pexels_pixabay_2765141647593447[] = {
/* columns rows colors chars-per-pixel */
"50 50 226 2 ",
"   c #050103",
".  c #0B0203",
"X  c #02020B",
"o  c #0C040A",
"O  c #050B0B",
"+  c #0C0A0C",
"@  c #120303",
"#  c #1A0404",
"$  c #130907",
"%  c #12050B",
"&  c #130A0C",
"*  c #1B0B0C",
"=  c #1B050B",
"-  c #12110F",
";  c #1A100E",
":  c #040610",
">  c #0D0612",
",  c #040A13",
"<  c #0B0B12",
"1  c #0B0D18",
"2  c #020F18",
"3  c #130D13",
"4  c #1B0D13",
"5  c #1A0F18",
"6  c #140B17",
"7  c #0B111B",
"8  c #091118",
"9  c #151215",
"0  c #1C1314",
"q  c #12131B",
"w  c #1C141B",
"e  c #1C191D",
"r  c #181B18",
"t  c #240C0C",
"y  c #230E10",
"u  c #2B0F14",
"i  c #231314",
"p  c #22151A",
"a  c #241B1C",
"s  c #2B1B1C",
"d  c #291416",
"f  c #331C1D",
"g  c #3B1B1B",
"h  c #26110C",
"j  c #1E231D",
"k  c #25221E",
"l  c #2B211E",
"z  c #36211E",
"x  c #151622",
"c  c #161A24",
"v  c #1C1B23",
"b  c #1D1E2A",
"n  c #191621",
"m  c #221721",
"M  c #241C23",
"N  c #2A1D23",
"B  c #231F29",
"V  c #2A1F29",
"C  c #321E22",
"Z  c #3B1F23",
"A  c #1D222B",
"S  c #1E2327",
"D  c #242222",
"F  c #2C2324",
"G  c #24222B",
"H  c #2C242B",
"J  c #2C292D",
"K  c #2A2A29",
"L  c #332325",
"P  c #3B2424",
"I  c #3A2927",
"U  c #33252B",
"Y  c #3B262B",
"T  c #332B2C",
"R  c #3B2B2C",
"E  c #362A27",
"W  c #3C302E",
"Q  c #36312D",
"!  c #262630",
"~  c #2C2631",
"^  c #262933",
"/  c #2C2B33",
"(  c #2E2E38",
")  c #342631",
"_  c #332C33",
"`  c #3B2D33",
"'  c #352D39",
"]  c #3C2F3A",
"[  c #2E3137",
"{  c #353134",
"}  c #3C3334",
"|  c #3C3935",
" . c #34333A",
".. c #3C333B",
"X. c #3B393C",
"o. c #31383E",
"O. c #43211F",
"+. c #55271D",
"@. c #421F22",
"#. c #442524",
"$. c #4B2624",
"%. c #432927",
"&. c #4C2926",
"*. c #43262B",
"=. c #442C2C",
"-. c #4A2C2C",
";. c #4D242C",
":. c #542C2E",
">. c #44322E",
",. c #4C312E",
"<. c #56322C",
"1. c #5C342D",
"2. c #432D31",
"3. c #4B2E32",
"4. c #542E30",
"5. c #5B2F32",
"6. c #443233",
"7. c #4C3334",
"8. c #423936",
"9. c #4B3936",
"0. c #44343B",
"q. c #4C353A",
"w. c #443A3B",
"e. c #4B3A3C",
"r. c #533534",
"t. c #5A3433",
"y. c #553936",
"u. c #5D3A35",
"i. c #53363A",
"p. c #533B3C",
"a. c #5B3C3B",
"s. c #5B373B",
"d. c #62352C",
"f. c #68392F",
"g. c #633C34",
"h. c #623D3C",
"j. c #663B33",
"k. c #4C423D",
"l. c #55413D",
"z. c #5D423D",
"x. c #64433D",
"c. c #6C453A",
"v. c #6B4539",
"b. c #73463B",
"n. c #3D3B43",
"m. c #3C3B45",
"M. c #453641",
"N. c #443B43",
"B. c #4C3D43",
"V. c #493C45",
"C. c #533C42",
"Z. c #5B3D42",
"A. c #3E4245",
"S. c #444142",
"D. c #4D4343",
"F. c #4A454A",
"G. c #4C494F",
"H. c #494749",
"J. c #544343",
"K. c #5C4343",
"L. c #544A47",
"P. c #5C4945",
"I. c #55454A",
"U. c #5B444A",
"Y. c #544B4C",
"T. c #5C4B4B",
"R. c #5B534E",
"E. c #55504D",
"W. c #4C4A52",
"Q. c #524B52",
"!. c #5C4D53",
"~. c #564955",
"^. c #4E5156",
"/. c #5C5352",
"(. c #55535A",
"). c #5D595C",
"_. c #5F5458",
"`. c #634443",
"'. c #6B4344",
"]. c #644945",
"[. c #6C4C45",
"{. c #624649",
"}. c #6B464B",
"|. c #634C4C",
" X c #6C4C4B",
".X c #744C42",
"XX c #714C4C",
"oX c #714748",
"OX c #6C524C",
"+X c #70584E",
"@X c #644F54",
"#X c #6C4E52",
"$X c #614750",
"%X c #645354",
"&X c #6B5254",
"*X c #64555A",
"=X c #6A5659",
"-X c #645958",
";X c #6D5A5B",
":X c #745453",
">X c #7A5555",
",X c #765A56",
"<X c #7A5A52",
"1X c #7E5B5E",
"2X c #745A5C",
"3X c #754D58",
"4X c #7C6158",
"5X c #5C5863",
"6X c #6A5C62",
"7X c #7B5D61",
"8X c #765E62",
"9X c #6C6062",
"0X c #6F6468",
"qX c #746464",
"wX c #75676B",
"eX c #83584D",
"rX c #835A5E",
"tX c #82645C",
"yX c #83695D",
"uX c #845F61",
"iX c #836465",
"pX c #856A67",
"aX c #8D716E",
"sX c #886A74",
"dX c #877370",
"fX c #9A7676",
/* pixels */
"< J J v G X...H V _ ' ' ' m.m.' S.} F H T 8.w.D.E L U.R d J.9.I k.j O - | | l L.).-XR.J.D.R.R.L.l.].",
"+ !  .{ { _ ~ H N ' M.' N m F ' H N M E } 0.e.C.T.9.=X6X|.OXK.%XL.K O l R.k.} T.Q E z a D R 6.8.I E ",
"9 K _ _ U M s U 2.6.6.` U F U ` N s N I 2.6.6.0.6.7.|. X}.#X2X&XD.K   | 9Xk.W 6.e.R z l Z ` 2.M.| _ ",
"+ D Q { } ` L Y e.C.e.=.=.6.9.=.2.Y P R 2.7.3.7.*.7.r.Z.{.,XpX2XT.9.. Y.qX8.>.Y r.P d P Y Z Z ) ..^ ",
"  k } w.Y.T.6.L =.|.&X7.z =.r.-.9.2.=.i.U.{.`.a.Z.;.@.`.1X:X>XrXT.q.. T.=X*.=.*.Z u u @.*.Z Z Z V B ",
"  j k D } l.9.P -.K.`.-.&.a.z.-.i.7.p.{.&X#XK.s.-.@.@.r.>XiXXX'.9.Q   P.J.Y 7.3.4.3.3.Z.Z.M.;.M.` ` ",
"O j r 9 a F L 2.p.7.#.#.r.`.K.r.7.q.J.{.{.p.7.*.g *.r.$.XXfX:Xa.p.6.$ T.C.q.C.Z.C.C.C.Z.Z.Z.Z.Z.r.y.",
"O j [ X.} M M 6.C.=.I =.=.%.7.a.=.2.q.e.6.P P %.,.O.-.%.[.iXy.K.k.R . J.` 9.6.3.@.2.;.3.C.Z.$X3X[.`.",
", A o.[ ! J F w U B.B.*.Y 2.e.I.9.8.E l E 9.L.|.J.l.>.9.r.%.=.z E Q   8.R W 2.Y U Y Y C Z ` e.J.a.x.",
", A m.[ / ' _ V 5 U 0.M.V.N.0.` { W T Q T | 9.8.J.T.l.z.l.>.z.|.k.K   E.k.E U e.N N U ` n.w.N.0.=.r.",
"X q A S m G B p ) V m 5 p F / { a D k l D F l k | 9.6.8.>.>.L.R.| k   D.} i r } 0.U n 9 w M G J ` 0.",
"O q r q > 3 6 3 6 > o > > < 1 < O O O   . . . . . .     . . ; ; ; ;   k & @ $ $ . .     > < , +   3 ",
"i a a 0 % % % 3 % > w w < 7 c 7 v 9 9 9 e e a a p a 4 p s * i ; ; l i i * i i % M n e v q < O 8 X 3 ",
"|.|.|.T.J.p.C.J.I.M...M + v H.^..._ ' X.N.N...} F.*X!.6XP.8.J.J.T.%X|.|.T.T.!.!.wX6X(.N.! 7 q S 0.!.",
"`.x.]. X].a.p.p.&X%X_.X.9 ! ^.G.N G J ' _ ) ) ` 0.I.C.U.q.Y e.C.7.7.7.7.q.p.C.~.B.V.G.Q.X.S 7 9 9.[.",
"z.P. X+X:Xa.y.p.p.C.L.U   v A.{ M V J U V m V 0.0.0.) 0.0.` C.C.2.7.p.=.q.@X#X|.6.` ] ` G < < 0 >.z.",
"D.` q.q.K. Xy.y.`.K.6.0.o O / n.G M M m N H H N ) ] V.V.M.] 2.0.W 9.9.>.%.,.z.'.=.7.|.R ` e + & P ].",
"~ M ' U =.p.r.x.4X].,.9.+ - ^ S 3 w m w w M ) ] U ] N.M.` C ) ` W 8.>.,.y.x.s.$.a.a.&X%X-X} O   L K.",
"_ ) ] Y Y 3.s. X,Xy.6.e.& 3 ^ x M _ N.F.F.0.` U ) ] 0.` U N V ) R >.,.7.].<XoX<.;.&.K.8XqXD.% . s P.",
"n...0.` =.i.{.#XiXZ.i.7.  + 5X5X5XG.....N.N..._ J ) ) ) V V H Y L >.p.r.s. X>XoXh.XXrXsX=XC.% % s /.",
") ) N Z q.Z.#X#X#Xi.Z.7.. o W.N.N.T e w F _ _ H H U H H ` _ U C P 9.i.7.4.h.'.'.XXrXuX7X{.C.4 % 0 !.",
"' ' V ) B.Z.{.Z.Z.Y 0.2.= 6 N.V M D K J { J J T } _ T _ ] ..` Y 0.q.q.a.'.XXoX}.'.XX}.Z.$X*XN o 9 G.",
"M.N.) ] 0.7.U.e.=X7.C = . w 6X(.Q.S.} T K F } N.` } R ` } 0.w.N.V.7.q.U.#X#X}. XuX#X}.e.U.C.p   w S.",
"! ..V ) U F 0.0.6.U N 3 + 6 G.G.).H.{ J T F a a N K T T U ` w.V.B.` ` B.i.2.7.a.{.3.i.C 0.N = 6 X b ",
"> >     . . . $ $     + . < 3 .     .   . . @   & @     @ . . & . 3     $ . @ . @ @ . . o .   X < , ",
"  + e k e 9 9 & r - 0 a M H J D s l L F l s a i $ s l d s L d ; < < - w i 0 a a z l l T T H K J n. .",
"N.{ Q a   + K | k.Q | D.D.Y.Y.w.w.k.L.L.D.k.8.w.%XwXdXqXqX;XK.8.e X v F.H.Q.%XY.8.8.w.X.X.{ | n.(.S.",
").a $ r Q L.E.K | F F R W 6.` L | 6.w.k.9.9.q.J.;X;X;X;X%Xq.P ` / X ! (.W.H.w.a N.| Q D k e G ' n./ ",
"T.p.T.Y.l ; E l w.R W e.p.C.p.q.I E R W >.>.9.l.7.6.R 6.9.R P q.H X ( ^.{ H M % 8.} F w w w M F U H ",
"K.%.P =.I 9.P.P.L d f =.3.r.s.s.r.=.I I I I 6.p.9.K.r.=.7.K.K.J.B : m.W.D M T ` } T U N N V H F U Y ",
"y.;.3.s.z.y.e.p.d t g 3.5.:.5.t.y.>.g z z f z %.%.7.,.%.y.z.r.2.] > n...6 M M U R ` ` L C U ) ` C C ",
"r.$.g -.`.K.7.7.Z g 3.h.h.5.5.t.OXy.%.%.=.%.%.=.y.p.z.,XaXpX,X2X] o B U V M.Y C ` 6.6.P N C Y 2.3.3.",
"#.s.-.,.{.Z.7.=.*.p.Z.y.4.h.h.<.u.1.$.O.#.-.r.-.7.].<XtXtX<X<X<Xk.  Q k.%Xe.7.,.K.%.P -.P P 9.7.4.;.",
"-.,.%.p.a.Y =.e.q.3.7.p.y.r.y.`.u.u.g.r.,.4.=.P P z 9.OXyXyXyXyXL.  T 9.T.9.7.-.y.y.y.y.P L 6.*.*.;.",
"7.9.7.p.Y y Y 0.` C P 2.3.%.-.y.`. X X XK.e.7.=.7.I =.P.,X+X[.[.6.  } k.T.J.p.=.g 7.U.e.R ` 0.6.=.7.",
"6.p.p.6.d s 0._ q.B.e.q.e.p.J.y.{.&X;X@XU.e.B.B.J.e.J.l.9.,.I P F + } } w.q.p.-.i.K.&XI.0.0.....Q w.",
"L Y P U p F 0.F N H U L L P I L s L E K a w p M w s s y * # # . *   0 . . @ i u y t C N N N 6 M 9 r ",
"* @   .   . . X X     o .   . * o . o . .       o . @ . # * t # $ $ d ; # # t t # . = % 4 m   1     ",
"D.D.} { _ M G ^ ' ( G n 9 w F ' { J a D H T Q ` 0.` 2.q.7.2.7.K.l.l.P.OX[.K.a.r.#X|.=XB.I.~.w 3 sX2X",
"B.6XG.{  . .N.A.G.5XW.x < G n.X.).S.T _ 8.D.R.-X%XT.%X8X|.*.s.pXaXyX[.[.[..XXXXX}.,XiXU.=X0XU p sX3X",
"F T } / M n G ^ A x b 1 , b b ' _ | | Q l z >.z.y.`.K.a.`.s.h.1Xx.c.[.c.b..X.Xd.1.u.z.].%X|.a * @X*.",
"} ..} { { ( ! b c x b 2 : x x D } } W >.>.,.9.,.y.z.s.u.`.h.s.XXu.v.b.b.eXeXc.+.1.f.u.x.`.P.d t !.Y ",
"D.w.} T ^ G n x c c ^ c 1 S ~ ( E R R 2.8.,.,.,.r.u.u.h.[.h.5.5.1.v.j.v.b.b.f.+.d.j.x.u.r.y.h * U.Y ",
"D.} D e 6 + 1 c c x b 7 : c ' / a L 6.3.>.%.,.u.a.u.u.`.XX'.:.@.<.1.h.g.g.d.d.d.1.j.1.<.,.y.h @ e.s ",
"0.s ; 0 e n V ( ^ ! b 1 X x m.b ) ) q.0.2.7.y.'.x.t.y.a.$X}.Z.;.,.y.u.'.'.g.1.<.$.1.&.#.=.P.s @ K O ",
"e.L i L 0. ./ ~ m.^ b x X ! W.~ M.m.) 2.7.p.Z.Z.y.-.*.*.;.Z.Z.C.9.P Z -.s.t.;.#.g &.%.#.9.OXE . D O ",
"p.R T e.V.) m b 6 n x 6 X b W.B m.) ) ) 0.B.C.Z.i.*.;.=.2.V.Z.V.C.0.Y 2.7.3.*.*.#.Z.U.p.J.qXE . } F ",
"R R 0.D.' 6 > n x ! ! G : G (.B B V ' ] ] 0.V.U.i.0.C.Z.V.Z.*XV.!.!.*X6X$X2.=.7.q.2X8X@X!.0XT   !.B.",
"} ` H M w 7 < , : 2 7 , 2 ( m.! q 7 S { ..} ` w.q.w.e.B.C.V.V.C.C.~.I.B.8.} ` ` ` 0.0.0.) ~ n 1 ' _ ",
"4 & + < > , 2 , 2 2 7 , X x c O X X X < q + & p 0 4 * 4 4 p w y = u i = & + & o   o = % > > : X , + "
};
