/* XPM */
static char *d879j2b_99fe4eb3_3435_45eb_9a80_f4e0d7f3f4a1_removebg_preview__1_1647252846[] = {
/* columns rows colors chars-per-pixel */
"50 50 193 2 ",
"   c #040404",
".  c #0A0606",
"X  c #050905",
"o  c #0C0A05",
"O  c #060709",
"+  c #0B060A",
"@  c #05090A",
"#  c #0A0A0B",
"$  c #130709",
"%  c #07160A",
"&  c #13120E",
"*  c #1D180D",
"=  c #090913",
"-  c #0C0D11",
";  c #100F12",
":  c #1D0F11",
">  c #0E1113",
",  c #131415",
"<  c #181A13",
"1  c #14151B",
"2  c #19141C",
"3  c #15191C",
"4  c #1B1B1C",
"5  c #250704",
"6  c #2C0303",
"7  c #220C0C",
"8  c #27140C",
"9  c #331607",
"0  c #271919",
"q  c #331B1A",
"w  c #0C250C",
"e  c #0C3B0C",
"r  c #192616",
"t  c #193B19",
"y  c #25251E",
"u  c #37371D",
"i  c #151B21",
"p  c #1A1923",
"a  c #1B1D22",
"s  c #201F28",
"d  c #311E22",
"f  c #1E2124",
"g  c #1F2129",
"h  c #222324",
"j  c #292724",
"k  c #262820",
"l  c #2B2A24",
"z  c #24242A",
"x  c #26282C",
"c  c #2B2B2D",
"v  c #362927",
"b  c #28322C",
"n  c #31332D",
"m  c #36392B",
"M  c #282732",
"N  c #2C2D33",
"B  c #342D33",
"V  c #372D3D",
"C  c #2F3233",
"Z  c #2F323B",
"A  c #333334",
"S  c #3A3635",
"D  c #343A34",
"F  c #3A3C35",
"G  c #34353B",
"H  c #363A3D",
"J  c #3A3B3C",
"K  c #44130A",
"L  c #4F0F11",
"P  c #4C1A17",
"I  c #5F1C14",
"U  c #671C0E",
"Y  c #59290B",
"T  c #462614",
"R  c #4A321B",
"E  c #56331A",
"W  c #713409",
"Q  c #462B24",
"!  c #5C3F2D",
"~  c #433939",
"^  c #0B4A0B",
"/  c #0A580C",
"(  c #134714",
")  c #1D5C19",
"_  c #21550A",
"`  c #3A5117",
"'  c #086B09",
"]  c #156A0E",
"[  c #077A09",
"{  c #0A7C0C",
"}  c #106E10",
"|  c #137813",
" . c #1A7C1A",
".. c #3B7015",
"X. c #3D403F",
"o. c #4D5B0B",
"O. c #74491D",
"+. c #706416",
"@. c #484634",
"#. c #5C4F35",
"$. c #4A5134",
"%. c #4D513C",
"&. c #6B452C",
"*. c #6B5530",
"=. c #725032",
"-. c #6E7D2F",
";. c #353643",
":. c #3C3E42",
">. c #433F43",
",. c #3E4143",
"<. c #3D4049",
"1. c #434345",
"2. c #45454A",
"3. c #484948",
"4. c #4B4B4C",
"5. c #464854",
"6. c #4F4F51",
"7. c #4D5351",
"8. c #565656",
"9. c #585757",
"0. c #585857",
"q. c #535559",
"w. c #5C5C5C",
"e. c #7F5F47",
"r. c #5F6353",
"t. c #666B46",
"y. c #6F695C",
"u. c #635F66",
"i. c #5B6063",
"p. c #636363",
"a. c #6E6867",
"s. c #656569",
"d. c #6D6D6D",
"f. c #746D6F",
"g. c #747F63",
"h. c #6C6E72",
"j. c #766E76",
"k. c #6D7677",
"l. c #727272",
"z. c #76737B",
"x. c #77787B",
"c. c #7C7C7D",
"v. c #8A571A",
"b. c #9C5819",
"n. c #82601E",
"m. c #B16117",
"M. c #905E2E",
"N. c #A05F24",
"B. c #906F34",
"V. c #AF722E",
"C. c #C47929",
"Z. c #188519",
"A. c #249826",
"S. c #498426",
"D. c #758332",
"F. c #889D16",
"G. c #9A8737",
"H. c #BF832E",
"J. c #AA8B37",
"K. c #C48A36",
"L. c #E18F3A",
"P. c #E5903A",
"I. c #BA9B4D",
"U. c #9D977D",
"Y. c #DC9E46",
"T. c #CEA24D",
"R. c #E8A84A",
"E. c #EAB650",
"W. c #F2B753",
"Q. c #FEC75E",
"!. c #FACB61",
"~. c #7E7F81",
"^. c #848484",
"/. c #84858A",
"(. c #868F8F",
"). c #8D8D8D",
"_. c #8C8893",
"`. c #929292",
"'. c #979A98",
"]. c #9B9B9B",
"[. c #9F9FA0",
"{. c #A09DA5",
"}. c #A5A5A5",
"|. c #A3A7AB",
" X c #ACACAC",
".X c #AFB7B4",
"XX c gray70",
"oX c #BEBEBE",
"OX c #C0C0BF",
"+X c #B9C4C1",
"@X c #C4C4C4",
"#X c #CACACA",
"$X c #D0D0D0",
/* pixels */
"8.8.8.8.8.8.8.8.8.8.8.8.8.8.8.8.8.8.8.8.8.8.8.0.0.9.0.0.8.8.8.8.9.q.q.8.8.8.8.8.8.8.8.8.8.8.8.8.8.8.",
"w.w.w.w.w.w.i.w.i.w.w.w.w.w.w.w.w.w.w.w.w.w.J c l 1.4.J w.i.w.w.r.w.w.u.w.w.w.w.w.w.w.w.w.w.w.i.w.w.",
"`.`.`.`.`.`.`.`.`.`.`.`.`.`.`.`.`.`.`.`.'.1.% e ^ e ( ^ F u.n `.`.`.`.`.`.`.`.`.`.`.`.`.`.`.`.`.`.`.",
"#X#X#X#X#X#X#X#X#X#X#X#X#X#X#X#X#X#X#X#X'.m ^ ' | } [ Z.) w t ).@X#X#X#X#X#X#X#X#X#X#X#X#X#X#X#X#X#X",
"^.^.^.^.^.^.^.^.^.^.^.^.^.^.^.^.^.^.~.7.t ( Z.{ Z.A.[ Z.A.'  ., ~.^.^.^.^.^.^.^.^.^.^.^.^.^.^.^.^.^.",
"0.0.0.9.9.9.9.0.9.0.0.0.0.0.0.0.0.0.C w / Z. ._ ..S..._ ] ` ( , 8.8.0.0.0.0.0.0.8.0.0.0.0.0.0.0.0.9.",
"8.8.9.8.8.8.8.8.8.8.8.8.8.8.8.8.8.8.A r / Z./ n.R.!.W.K.G.V.% 1 q.8.8.8.8.8.8.8.8.8.8.8.8.8.8.8.9.8.",
"8.8.8.8.8.8.8.8.8.8.9.8.8.8.8.8.8.8.1.r ^ ) +.C.Y.H.K.Q.Q.J.> 2.8.8.8.8.9.8.8.8.8.8.8.8.8.8.8.8.8.8.",
"8.8.8.8.8.8.8.0.8.8.8.8.8.8.8.0.8.q.9.2 % G.L.P.M.K W V.Y.O., 0.8.8.8.8.8.8.8.8.8.8.8.8.9.8.8.8.8.8.",
"8.8.8.8.8.8.8.8.8.8.8.8.8.8.8.q.8.9.9.z + T V.W.H.v.B.J.N.> J 0.8.8.8.8.8.8.8.8.8.8.8.9.8.8.8.8.8.8.",
"0.8.8.8.8.8.8.8.8.8.8.8.8.8.8.8.8.8.8.1.1   W Y.R.T.W.W.B.f 0.8.8.8.8.8.8.8.8.8.8.8.8.8.8.8.8.8.8.8.",
"8.8.8.8.8.9.8.8.8.8.8.9.8.9.8.8.8.8.8.a i.k.w.*.b.m.b.*.4.,.8.8.8.8.8.8.8.0.8.8.9.8.8.8.8.8.8.8.9.8.",
"8.8.8.9.8.8.8.8.8.8.8.9.8.8.8.8.8.8.c c /.[.|.k.@.E E y./.> 0.8.8.8.8.8.8.8.8.8.8.8.8.8.8.8.8.9.8.8.",
"8.8.8.8.8.8.8.8.8.8.8.8.8.8.8.8.8.q.4 & & & 1 <.8.B f.oX4.f 8.8.8.8.8.8.8.8.0.q.8.8.8.8.8.8.8.8.8.8.",
"8.8.8.8.8.8.8.8.9.8.8.8.8.8.8.8.8.q.i O 4 f , .   f 3.G , 0.8.8.8.8.8.0.8.8.8.8.8.8.8.9.8.8.8.8.8.8.",
"8.8.8.8.8.8.8.9.8.8.8.8.8.8.9.8.8.8.a h C J 0 o X @     x 6.8.0.3.m m 3.8.8.8.8.8.8.8.8.9.8.8.8.8.8.",
"8.0.8.8.8.8.8.8.9.8.8.8.8.8.8.8.8.8.3 # @ f A 4 @ @ @ c 4., 8.~ v +.J.y 4.w.8.8.8.8.8.q.9.8.8.8.8.0.",
"8.8.8.8.8.8.9.8.8.8.8.8.8.8.9.8.8.8.,.> @ @ , h , O + X O a 3.q =.Y Y r n n 3.9.8.8.9.9.8.8.8.8.8.8.",
"8.8.8.8.8.8.8.8.8.8.8.8.8.8.8.8.8.8.8.1 @ @ @ # h f @ X # 3 q I U $ $ o.-.n 1.9.8.8.8.8.8.8.8.8.8.8.",
"8.8.8.8.8.8.8.8.8.8.8.8.8.8.8.8.8.8.8.f - @ @ O 1 h , X o 8 &.P 6 + # , n 6.q.9.8.8.8.8.8.8.8.9.8.8.",
"8.8.8.8.8.8.8.8.8.8.8.8.8.8.8.8.8.8.8.2.4 y < @ @ - f f . 9 E 7 $ .   J G n m v 1.9.8.8.9.8.8.8.8.8.",
"8.8.8.8.8.8.8.8.8.8.8.8.9.8.8.8.8.8.8.0.g = a 3 @ @ , j , o o . + , k >.j.D.F.` G 9.8.8.8.8.8.8.8.8.",
"9.0.8.8.8.8.8.0.9.9.8.8.8.8.q.q.8.q.0.8.g a , O @ @ O > 3 % 0 o , q.h.j.u.3.F J 4.8.8.9.8.8.8.8.8.0.",
"i.0.0.8.8.0.w.w.w.w.w.w.u.w.w.i.0.0.8.0.g N 7.b O + O @ > X.U.T.I.v N N 2.4.w.p.u.w.w.w.w.9.8.8.0.0.",
"[.^.p.9.8.p.~.].{.}.}.}.}.}.[.'.l.w.9.w.g 0 y y & o O = + T T.!.E.M.q x.].}.|.}.}.}.}.[.).l.8.9.i.d.",
"@X].h.w.8.d.`.oX$X$X$X$X$X$X$XXXx.w.G c i r y X.S k 3 @ O 7 &.Y.C.e.q `.@X#X$X#X$X$X$X#X Xc.9.9.i.c.",
"c.f.r.9.9.w.d.c.^.~.^.z.f.h.s.:.1.2.5.B 4 , C 3.N 1 = @ + + : Q Q v 4.d.c.^.^.^.^.U.^.~.l.a.9.9.w.p.",
"w.0.q.9.8.9.9.0.w.4.J ;.:.s././.).l.c & p V %.X.f 2 O O + + s q.8.8.9.0.w.0.0.0.q.6.0.w.0.0.8.8.8.9.",
"9.9.0.0.8.4.S N ;.5.s.`.+X'.a.8.z ,   + - N S 4 > 1 # + . # 3 N q.8.8.8.8.8.9.8.q.8.8.8.8.8.8.8.8.8.",
"q.9.1.:.Z 6.h.(..X[.~.~.7.& 8 . $ : #   0.,.a f 1.1.a > O O O a 8.8.8.8.8.8.8.8.q.8.8.8.8.8.8.8.8.8.",
"8.D @.$.g.}._.u.4.u.'.d.8 R ! 5 5 9 o J 8.g x 4.9.9.4.N 1 # O 3 C 8.8.8.8.8.8.8.8.8.8.8.8.8.8.8.8.8.",
"8.l r.t.$.C M ;.,.,.5.A & * 7 5 9 $ 4 ~.G a 2.9.8.8.9.8.J - ; c g 2.8.9.8.8.8.8.8.8.9.8.8.8.8.8.8.8.",
"8.8.S c 3.q.1.~ S v q $ 2 d 6 P # % p.:.N 4.8.8.8.8.8.0.6.M , ; H a 6.9.8.8.8.8.8.8.8.8.8.8.8.8.8.8.",
"8.8.9.0.8.G 4 $ * R E d ;.A L K X & 2.z 2.9.8.8.8.0.8.8.9.3.3 3 A a 6.9.8.8.8.8.8.8.8.8.8.8.8.8.8.8.",
"8.8.8.3.A < # O @ 3 B v ` *.K 6 < 3.g 1.9.8.8.8.8.8.8.8.8.8.1.3 3 q.g 6.8.8.8.8.8.8.8.8.8.8.8.8.8.8.",
"8.8.8.y r.%.y j A A v K W W + = g i C 8.0.8.q.8.8.8.8.8.8.9.4.1 - J N H 8.8.8.8.8.8.8.8.8.8.8.8.8.8.",
"8.8.8.3.~ D X.7.8.~ P I L 5   + 1 1.8.8.8.8.8.8.8.8.8.0.8.8.8.,.3 # A a 3.9.8.8.8.8.8.8.8.8.8.8.8.8.",
"8.8.8.9.6.8.9.4.S #.*.9 2 = = 1 z q.8.8.9.8.8.8.8.8.8.8.8.8.8.8.M 1 O , H 8.8.8.8.8.9.8.8.8.8.8.8.8.",
"9.8.8.8.8.8.0.n $.t.u y , @ i ;.8.8.8.8.8.8.8.8.8.8.8.8.8.8.8.8.8.a , z 3 2.9.8.8.8.8.8.8.8.8.8.8.9.",
"8.8.8.8.8.8.8.7.J 2 < j = 1 N 9.9.8.8.8.8.8.8.9.8.8.8.8.8.8.8.8.8.3.a N z :.8.8.8.8.8.8.8.8.8.8.8.8.",
"8.8.8.8.8.9.8.0.A h j O p :.8.8.8.8.8.8.8.8.8.8.8.9.8.8.8.8.9.8.8.q.a - G g 1.0.8.8.8.8.8.8.8.8.8.8.",
"8.8.8.8.8.8.0.:.N z , 3 c 0.8.8.8.8.8.8.8.8.8.8.8.8.8.8.8.8.8.8.8.8.1.a 3 , z 2.8.0.8.6.8.6.8.8.8.8.",
"8.8.8.8.8.0.4.G M h , z 8.8.8.8.8.9.8.8.8.8.8.8.8.8.8.8.8.8.8.8.8.8.8.C 1 , x g A 1.J Z N x 8.8.8.8.",
"8.8.8.8.8.0.N a A A 3 z 8.9.8.8.8.8.8.8.8.9.8.8.8.8.8.8.8.8.8.8.8.8.8.8.z 4 - # z Z Z ;.;.,.8.8.8.8.",
"p.p.p.p.p.p.G @ , c G <.;.8.8.p.p.p.p.p.p.p.p.p.p.p.p.p.p.p.p.p.p.p.p.p.G , O O f G 2.8.8.p.p.p.p.p.",
" X X X X X Xc.w.J a G q.5.4 H }. X X X X X X X X X X X X X X X X X X X X Xh.q.9.^. X|. X X X X X X X",
"oXoX+XOXoXoXoX@X].c.x.x.c.c./.oXoXoXoXoXoXoXoXoXoXoXoXoXoXoXoXoXoXoXoXoXoXOXOXOXOXoXoXoXoXoXoXoXoXoX",
"d.d.d.d.d.d.d.d.d.l.l.l.l.l.d.d.d.d.d.d.d.d.d.d.d.d.d.d.d.d.d.d.d.d.d.d.d.d.d.d.d.d.d.d.d.d.d.d.d.d.",
"8.8.8.8.8.8.8.8.8.8.8.8.8.9.8.8.8.8.8.8.8.8.8.8.8.8.8.8.8.8.8.8.8.8.8.8.8.8.8.8.8.8.8.8.8.8.8.8.8.8.",
"8.8.9.8.8.8.9.8.8.8.8.8.8.8.8.8.9.8.8.8.8.8.8.8.8.8.9.8.8.8.8.8.8.8.8.8.8.8.8.8.8.8.8.8.8.8.8.8.8.8."
};
